<?xml version="1.0" standalone="no"?>
<!DOCTYPE svg PUBLIC "-//W3C//DTD SVG 20010904//EN"
 "http://www.w3.org/TR/2001/REC-SVG-20010904/DTD/svg10.dtd">
<svg version="1.0" xmlns="http://www.w3.org/2000/svg"
 width="1179.000000pt" height="1160.000000pt" viewBox="0 0 1179.000000 1160.000000"
 preserveAspectRatio="xMidYMid meet">

<g transform="translate(0.000000,1160.000000) scale(0.100000,-0.100000)"
fill="#000000" stroke="none">
<path d="M0 5800 l0 -5800 5895 0 5895 0 0 5800 0 5800 -5895 0 -5895 0 0
-5800z m6250 5530 c838 -57 1616 -286 2328 -683 190 -106 432 -261 432 -276 0
-5 -5 -13 -11 -16 -11 -7 -40 25 -33 37 2 4 0 9 -5 12 -5 3 -12 -6 -16 -22
-14 -55 -51 -70 -79 -31 -21 30 -58 47 -95 43 -25 -3 -39 3 -66 30 -36 37 -45
36 -45 -1 0 -14 -3 -23 -7 -21 -5 2 -20 10 -36 18 -24 12 -29 11 -40 -2 -6 -9
-27 -18 -44 -21 -28 -5 -37 -1 -63 26 -17 18 -33 43 -37 56 -3 13 -15 33 -26
44 l-20 20 7 -44 c4 -24 11 -48 17 -54 12 -12 12 -42 0 -50 -6 -3 -19 5 -31
17 -17 19 -24 20 -40 11 -16 -10 -30 -7 -86 22 -50 26 -71 32 -85 25 -12 -7
-20 -7 -24 0 -3 5 -14 10 -24 10 -10 0 -30 9 -45 21 l-26 20 -9 -25 c-8 -21
-19 -26 -65 -31 -31 -4 -73 -4 -93 0 -75 15 -207 14 -248 -2 -70 -26 -107 -32
-204 -34 -69 -2 -113 -8 -156 -24 -35 -13 -98 -25 -149 -29 -112 -8 -189 -28
-282 -72 -40 -19 -86 -34 -104 -34 -20 0 -44 -10 -62 -25 -18 -15 -42 -25 -62
-25 -23 0 -41 -9 -61 -30 -16 -16 -38 -30 -49 -30 -10 0 -28 -8 -39 -17 -10
-10 -40 -25 -65 -34 -28 -9 -51 -24 -57 -37 -5 -12 -22 -26 -37 -33 -14 -6
-34 -19 -44 -30 -9 -10 -25 -19 -34 -19 -9 0 -22 -11 -28 -25 -6 -13 -25 -31
-42 -40 -16 -8 -30 -21 -30 -29 0 -18 -30 -42 -64 -50 -16 -4 -52 -31 -80 -59
-28 -29 -66 -59 -83 -66 -18 -7 -33 -20 -33 -27 0 -8 -3 -14 -7 -14 -5 0 -21
-24 -37 -53 -37 -67 -55 -87 -78 -87 -21 0 -22 -4 -8 -31 15 -28 -22 -88 -62
-101 -8 -3 -8 -10 0 -24 17 -32 -17 -157 -59 -215 -11 -16 -17 -33 -14 -39 3
-6 -2 -22 -13 -38 -21 -31 -42 -97 -42 -134 0 -14 -7 -31 -15 -38 -17 -14 -20
-50 -5 -50 6 0 6 -9 1 -23 -5 -12 -12 -59 -16 -102 -3 -44 -15 -116 -25 -160
-27 -119 -54 -478 -46 -627 6 -118 43 -348 57 -358 4 -3 9 -14 12 -25 3 -11 3
5 1 35 -4 48 -4 209 0 308 1 24 9 40 30 57 28 22 29 26 16 49 -12 24 -11 28 8
49 12 13 29 50 37 81 9 32 24 71 35 86 11 16 20 38 20 49 0 12 15 54 34 94 19
40 37 83 41 97 16 53 78 160 96 165 23 8 61 56 125 160 54 87 74 109 149 158
67 43 90 68 87 92 -3 19 2 21 45 19 55 -1 104 -21 83 -34 -7 -4 -10 -12 -7
-18 8 -11 79 -25 127 -23 111 4 163 10 230 25 41 10 95 22 119 27 24 5 49 13
56 19 29 24 116 34 285 31 96 -1 179 -7 185 -12 5 -5 25 -9 45 -9 20 0 41 -5
48 -12 9 -9 17 -9 36 1 17 10 29 10 44 2 11 -6 30 -11 42 -11 24 0 37 -25 22
-43 -5 -6 -9 -34 -8 -62 l2 -50 47 -9 c36 -7 47 -14 47 -28 0 -10 -7 -18 -15
-18 -9 0 -12 6 -9 15 4 8 1 15 -5 15 -6 0 -11 -11 -11 -25 0 -16 6 -25 15 -25
9 0 30 -7 48 -16 31 -17 31 -16 57 14 24 30 28 31 63 21 21 -5 42 -7 47 -4 16
10 11 33 -7 38 -17 4 -17 5 -1 6 10 0 22 -8 28 -19 6 -11 19 -20 30 -20 10 0
30 -11 44 -25 14 -14 29 -25 34 -25 5 0 15 -6 22 -14 6 -8 17 -13 24 -10 16 6
56 -26 59 -48 4 -22 27 -48 43 -48 8 0 14 -5 14 -12 0 -21 32 -48 57 -48 18 0
27 -8 35 -31 7 -20 15 -28 25 -25 10 4 13 1 8 -13 -3 -11 -2 -22 3 -25 5 -3
12 -37 16 -76 8 -74 11 -79 60 -90 27 -5 31 -10 31 -40 0 -32 2 -35 29 -33 16
1 36 9 46 18 23 21 30 19 30 -10 0 -22 3 -24 30 -19 31 7 90 -12 90 -27 0 -5
7 -9 15 -9 8 0 15 -9 15 -20 0 -23 10 -26 28 -8 9 9 12 8 12 -4 0 -9 6 -18 12
-20 10 -4 10 -10 1 -30 -13 -28 1 -56 49 -101 21 -19 28 -38 33 -84 7 -55 10
-61 41 -78 23 -12 33 -24 29 -33 -9 -23 5 -54 21 -48 10 4 14 -3 14 -24 0 -21
-5 -30 -17 -30 -9 0 -14 -3 -10 -6 3 -4 -3 -29 -13 -58 -24 -62 -24 -61 -4
-42 21 22 30 14 37 -32 2 -22 13 -57 23 -78 10 -21 19 -43 20 -49 0 -5 2 -18
2 -27 1 -10 16 -24 32 -33 35 -18 39 -43 8 -50 -55 -11 -63 -10 -61 8 1 23
-26 57 -46 57 -8 0 -22 7 -31 15 -10 9 -39 20 -66 25 -27 5 -69 14 -94 20 -25
6 -61 14 -80 17 -30 5 -33 4 -22 -9 16 -20 6 -28 -35 -28 -38 0 -43 -11 -10
-25 12 -6 22 -17 22 -25 0 -15 -6 -16 -85 -8 -21 2 -35 -1 -35 -9 0 -23 -15
-25 -67 -7 -39 13 -89 18 -196 19 -79 0 -146 -3 -148 -7 -3 -4 -18 -8 -33 -8
-40 0 -63 -29 -55 -68 6 -30 4 -32 -20 -32 -22 0 -28 -6 -33 -31 -3 -19 -15
-35 -29 -41 -53 -24 -18 -64 59 -67 9 -1 17 -8 17 -16 0 -8 3 -15 8 -15 11 1
47 30 36 31 -17 1 31 18 54 18 13 1 38 8 55 15 18 8 82 27 142 41 61 14 130
31 155 37 25 7 51 11 58 10 8 -2 24 4 37 12 14 9 36 16 50 16 29 0 33 17 8 36
-17 13 -17 13 3 14 11 0 25 -5 30 -10 13 -13 175 -26 264 -21 56 3 146 3 175
1 14 -2 28 -7 31 -12 3 -5 11 -5 18 1 9 8 22 1 46 -24 19 -19 42 -35 51 -35
10 0 21 -4 24 -10 3 -6 15 -10 25 -10 10 0 26 -13 35 -28 19 -32 67 -56 95
-49 14 4 20 0 20 -13 0 -13 -6 -16 -25 -12 -14 2 -25 0 -25 -4 0 -21 62 -114
75 -114 8 0 15 -4 15 -10 0 -5 -4 -10 -10 -10 -18 0 -11 -39 11 -61 15 -15 19
-29 15 -47 -3 -15 -9 -47 -14 -72 -5 -25 -17 -67 -27 -95 -10 -27 -19 -77 -19
-110 -1 -47 -7 -67 -26 -93 -19 -26 -22 -36 -13 -50 5 -10 9 -41 6 -69 -3 -45
-1 -52 17 -58 18 -6 20 -15 20 -81 0 -42 5 -84 10 -95 8 -13 7 -25 0 -39 -8
-15 -7 -27 4 -48 9 -18 11 -33 5 -43 -5 -8 -9 -24 -9 -36 0 -19 -6 -23 -29
-23 -34 0 -49 -16 -32 -33 9 -9 16 -8 31 1 11 6 22 12 25 12 10 0 5 -46 -6
-57 -8 -8 -4 -17 12 -32 20 -19 22 -24 11 -42 -11 -17 -11 -25 3 -45 8 -13 20
-24 25 -24 16 0 12 -76 -5 -90 -13 -10 -11 -16 10 -44 30 -39 30 -46 7 -94
-13 -27 -16 -48 -10 -77 4 -22 7 -65 8 -95 1 -30 4 -49 7 -42 11 27 23 -3 23
-59 0 -63 -16 -81 -23 -26 -2 17 -4 -7 -4 -55 1 -62 5 -89 14 -92 18 -7 16
-43 -2 -54 -10 -5 -17 -27 -20 -58 -2 -27 -4 -51 -4 -54 -1 -3 -14 -13 -30
-23 -21 -12 -32 -29 -40 -63 -9 -35 -15 -44 -27 -40 -9 3 -26 3 -39 0 -21 -5
-23 -10 -19 -50 4 -45 -3 -53 -24 -32 -9 9 -12 9 -12 -1 0 -8 -7 -10 -20 -6
-15 5 -21 1 -25 -18 -4 -13 -5 -27 -4 -33 4 -23 -3 -34 -21 -34 -27 0 -27 -38
1 -86 23 -42 14 -63 -20 -45 -12 7 -21 16 -21 21 0 18 -17 10 -58 -28 -23 -22
-42 -46 -42 -54 0 -22 -20 -35 -50 -33 -82 5 -80 4 -80 33 0 15 -4 33 -9 41
-7 11 -10 9 -16 -8 -8 -27 -29 -22 -33 7 -4 27 -7 27 -61 -3 -23 -14 -51 -25
-61 -25 -27 0 -34 -19 -16 -39 23 -25 21 -81 -2 -81 -10 0 -22 -4 -28 -10 -6
-6 -19 -5 -37 5 -15 7 -27 10 -27 4 0 -5 -5 -9 -11 -9 -5 0 -8 4 -5 9 3 4 -3
16 -14 26 -29 26 -15 48 26 40 19 -3 34 -2 35 2 8 86 12 99 39 123 26 23 27
29 21 75 -7 56 -21 65 -35 20 -5 -16 -11 -37 -13 -45 -4 -11 -8 -10 -16 8 -5
12 -19 22 -29 22 -10 0 -21 7 -24 15 -4 8 -12 15 -19 15 -8 0 -17 10 -20 23
-4 12 -18 31 -31 43 -15 12 -27 36 -31 60 -3 21 -11 42 -17 46 -8 5 -7 8 2 8
8 0 10 8 6 26 -5 20 0 31 26 54 18 16 38 38 44 48 6 11 24 38 39 61 54 81 69
118 58 139 -10 18 -19 20 -113 16 -57 -2 -112 -6 -123 -8 -11 -2 -45 -7 -75
-11 -30 -4 -76 -13 -102 -21 -25 -8 -66 -14 -90 -14 -52 2 -146 -30 -140 -48
2 -6 -2 -12 -9 -12 -6 0 -2 -9 11 -20 13 -11 27 -20 31 -20 13 0 40 -70 33
-82 -4 -6 -1 -9 6 -6 7 2 19 25 27 50 15 52 46 77 83 68 29 -7 48 -58 49 -130
1 -52 -31 -130 -53 -130 -31 0 -65 20 -79 47 l-15 27 -29 -59 c-26 -53 -33
-60 -62 -62 -17 -2 -43 4 -56 13 -29 19 -45 11 -45 -21 0 -18 6 -24 28 -27 37
-4 108 9 145 27 38 19 37 19 37 -6 0 -15 5 -19 15 -15 9 3 19 -3 25 -14 8 -15
6 -21 -10 -30 -25 -14 -26 -40 -1 -40 11 0 21 -5 23 -11 6 -17 95 -24 114 -8
9 7 33 19 52 26 31 10 40 10 59 -2 33 -22 53 -10 46 28 -3 18 -6 34 -5 37 0
30 4 31 22 10 11 -13 20 -27 20 -32 0 -4 9 -8 19 -8 16 0 21 -9 26 -44 6 -37
4 -47 -14 -65 l-21 -21 -16 25 c-20 30 -40 32 -54 5 -6 -11 -17 -20 -25 -20
-21 0 -38 -37 -27 -57 12 -20 -26 -96 -44 -89 -18 7 -62 -41 -69 -75 -7 -33
-35 -40 -35 -8 0 26 -17 59 -31 59 -7 0 -10 -21 -7 -55 1 -30 0 -55 -5 -55 -4
0 -6 -3 -5 -7 1 -5 -4 -19 -11 -32 -18 -32 -2 -46 49 -43 27 2 57 -5 86 -20
36 -17 47 -19 53 -9 12 19 20 -8 14 -42 -6 -31 -19 -34 -45 -10 -16 15 -20 15
-33 2 -14 -13 -13 -18 5 -37 l20 -22 -20 -20 c-11 -11 -20 -25 -20 -31 0 -6
-7 -18 -16 -26 -14 -14 -14 -17 1 -32 15 -15 17 -14 34 8 28 37 54 25 65 -32
5 -26 13 -47 17 -47 4 0 5 -15 2 -33 -3 -23 1 -38 16 -56 12 -13 21 -30 21
-38 0 -7 4 -13 9 -13 5 0 11 -12 14 -27 l5 -27 -18 24 c-19 25 -50 22 -50 -5
0 -17 -9 -19 -29 -6 -9 6 -12 19 -8 39 3 17 1 35 -6 42 -9 10 -9 11 1 6 14 -8
15 -5 6 18 -8 21 -17 20 -32 -5 -10 -16 -10 -24 -1 -35 7 -8 9 -30 6 -54 -5
-42 10 -70 38 -70 7 0 16 -7 19 -16 9 -25 7 -54 -4 -54 -6 0 -2 -10 10 -22 21
-23 17 -34 -15 -40 -18 -3 -20 3 -23 57 -3 57 -22 106 -22 57 0 -29 -29 -41
-45 -19 -7 10 -18 17 -24 17 -17 0 29 -57 52 -65 17 -6 17 -8 3 -28 -9 -12
-21 -32 -26 -44 -5 -13 -18 -23 -30 -23 -11 0 -20 -6 -20 -14 0 -27 -23 -35
-58 -20 -18 7 -31 18 -27 23 3 6 -4 15 -15 21 -15 8 -20 8 -20 -3 0 -7 5 -18
12 -25 9 -9 6 -18 -12 -37 -13 -14 -30 -23 -36 -21 -7 3 -15 0 -17 -7 -3 -9
-8 -8 -21 2 -14 12 -22 12 -37 3 -11 -7 -19 -8 -19 -2 0 16 -19 11 -41 -11
-20 -20 -23 -20 -31 -5 -11 20 -41 20 -85 0 -24 -12 -37 -14 -45 -6 -7 7 -17
3 -33 -16 -21 -24 -23 -25 -39 -9 -24 23 -23 23 -76 -25 -17 -15 -19 -15 -36
3 -10 11 -23 18 -30 15 -6 -2 -17 1 -23 7 -10 9 -16 7 -27 -7 -8 -11 -14 -15
-14 -10 0 5 -13 17 -29 27 -27 16 -29 16 -46 -3 -21 -23 -55 -27 -55 -6 0 8
-9 21 -20 29 -11 8 -17 17 -12 21 4 4 2 7 -3 6 -28 -6 -47 2 -57 25 -8 19 -14
22 -20 13 -6 -10 -14 -6 -31 14 -13 16 -30 28 -38 28 -20 0 -39 20 -39 41 0 9
-10 19 -24 23 -13 3 -29 18 -36 35 -7 18 -21 31 -33 33 -15 2 -24 14 -31 38
-6 19 -17 40 -25 46 -8 6 -11 16 -7 22 5 8 0 12 -13 12 -24 0 -41 28 -41 65 0
18 -6 29 -18 32 -13 3 -19 14 -19 33 0 16 -6 36 -13 45 -11 14 -15 14 -35 1
-21 -14 -24 -13 -40 4 -9 10 -14 23 -11 28 7 12 -18 35 -27 25 -4 -3 -7 -18
-7 -32 0 -23 -7 -29 -45 -40 -48 -14 -67 -9 -47 11 7 7 12 22 12 35 0 18 -6
23 -25 23 -29 0 -34 25 -10 56 13 17 14 17 15 2 0 -9 -4 -20 -10 -23 -19 -12
-10 -25 19 -25 39 0 51 42 23 79 -34 46 -77 23 -88 -45 -6 -43 -24 -72 -24
-40 0 9 -7 16 -15 16 -17 0 -19 18 -5 55 9 24 8 26 -12 24 -27 -4 -51 9 -43
22 4 5 17 9 31 9 15 0 24 6 24 15 0 17 -16 20 -25 5 -12 -20 -64 -11 -80 14
-15 22 -68 51 -87 47 -5 0 -8 11 -8 25 0 14 -4 22 -10 19 -5 -3 -17 3 -27 15
-10 11 -28 20 -40 20 -27 0 -30 15 -6 29 17 9 16 11 -1 30 -11 12 -30 21 -44
21 -23 0 -24 3 -18 38 5 35 3 40 -19 50 -14 7 -25 20 -25 31 0 27 -66 59 -83
42 -9 -9 -7 -16 9 -29 12 -9 34 -42 48 -72 14 -30 39 -77 56 -105 16 -27 34
-61 40 -75 6 -14 19 -34 29 -45 10 -11 24 -37 32 -57 9 -26 21 -40 42 -47 16
-6 26 -14 23 -19 -10 -16 87 -144 182 -239 28 -29 52 -56 52 -61 0 -4 16 -23
35 -42 19 -19 35 -40 35 -46 0 -6 11 -20 24 -33 13 -12 32 -40 42 -61 11 -22
26 -40 35 -40 19 0 32 -32 31 -75 -2 -27 -1 -28 8 -8 9 21 10 21 40 6 17 -8
36 -24 43 -35 7 -10 28 -29 47 -41 19 -12 43 -32 53 -44 10 -13 22 -23 27 -23
5 0 25 -16 44 -35 20 -19 40 -35 46 -35 5 0 27 -16 47 -35 44 -42 87 -65 119
-65 12 0 29 -7 38 -15 8 -8 24 -15 35 -15 11 0 44 -8 73 -19 108 -38 161 -51
278 -66 19 -2 50 -9 69 -14 23 -7 83 -7 184 0 83 5 173 9 201 8 70 -1 156 8
188 20 17 6 38 7 58 1 25 -7 35 -5 51 11 24 24 25 24 32 -1 3 -11 13 -23 24
-27 10 -3 22 -12 26 -20 4 -7 16 -13 27 -13 10 0 20 -5 22 -12 3 -9 13 -10 39
-2 21 7 47 7 68 2 29 -8 37 -6 60 16 15 14 32 26 38 26 6 0 24 8 41 17 34 20
62 12 62 -18 0 -16 4 -19 18 -14 9 4 26 10 37 13 11 2 25 9 31 14 6 4 33 9 59
10 33 2 49 8 56 20 5 10 30 23 54 29 25 6 45 15 45 21 0 5 16 18 34 29 32 19
34 23 24 45 -9 19 -8 27 1 37 10 9 15 8 26 -7 13 -18 16 -18 39 -2 14 9 34 16
46 16 23 0 61 30 54 42 -3 5 0 16 8 25 12 15 10 14 -19 0 -40 -21 -57 -21 -73
-2 -10 13 -9 15 12 15 14 0 32 8 41 18 18 19 91 22 110 3 15 -15 27 -14 21 2
-6 17 32 52 41 38 11 -18 23 -12 38 19 11 21 12 30 3 33 -8 3 -8 8 2 18 9 10
15 10 24 1 7 -7 15 -12 18 -12 9 0 6 32 -5 49 -6 11 -4 13 7 9 8 -4 20 2 26
13 16 25 39 24 47 -2 5 -16 -1 -29 -27 -54 -18 -18 -52 -53 -76 -79 -24 -25
-47 -46 -52 -46 -5 0 -17 -11 -26 -25 -9 -14 -23 -25 -30 -25 -8 0 -14 -9 -14
-20 0 -11 -7 -20 -15 -20 -8 0 -20 -9 -27 -20 -7 -11 -18 -20 -24 -20 -6 0
-25 -18 -43 -40 -18 -23 -83 -83 -144 -134 -113 -94 -147 -126 -131 -126 18 1
53 26 109 78 32 28 61 52 66 52 4 0 23 15 42 32 34 32 63 56 137 114 81 64
390 362 429 414 14 19 34 44 45 55 28 30 100 142 134 210 67 134 75 235 36
445 -8 47 -18 101 -21 120 -3 19 -15 47 -26 62 -20 26 -20 32 -7 76 7 26 14
61 15 77 0 17 4 41 8 55 4 14 9 75 11 135 3 61 9 139 15 175 6 36 11 114 11
174 1 60 4 114 8 120 6 10 15 218 13 318 0 21 4 49 9 63 7 18 6 32 -3 46 -10
16 -9 25 5 50 14 23 15 35 7 50 -16 30 -22 225 -8 251 6 12 25 32 41 46 16 13
38 41 48 62 21 41 74 80 109 80 30 0 92 41 123 82 51 66 98 177 98 230 0 52
-24 88 -58 88 -10 0 -23 5 -29 11 -5 5 -35 11 -65 12 -43 2 -60 8 -84 30 -39
37 -128 81 -147 74 -9 -3 -25 -24 -35 -45 -19 -39 -19 -39 6 -103 13 -35 29
-72 34 -82 6 -13 5 -25 -5 -40 -8 -12 -17 -38 -21 -57 -3 -20 -21 -58 -39 -86
-19 -28 -37 -59 -42 -70 -7 -14 -11 0 -15 51 -5 62 -45 200 -70 247 -16 28
-12 143 7 211 9 34 20 64 23 67 5 5 33 67 66 150 10 25 25 56 35 70 9 14 20
35 23 48 13 40 96 68 124 40 16 -16 51 3 74 40 91 147 180 252 214 252 36 0
32 41 -7 74 -55 47 -120 32 -205 -46 -25 -23 -46 -39 -49 -36 -2 2 1 35 7 73
12 77 6 368 -12 550 -6 61 -24 189 -41 285 -16 96 -34 200 -39 230 -9 50 -38
163 -62 235 -5 17 -16 54 -24 84 -8 30 -30 89 -49 133 -19 43 -35 84 -35 91 0
20 -156 322 -205 398 -26 39 -48 76 -49 83 -1 6 -18 29 -39 51 -20 22 -37 45
-37 52 0 7 -18 30 -39 51 -37 37 -39 40 -23 56 15 15 15 18 2 26 -8 5 -30 10
-47 10 -31 0 -32 2 -26 30 4 23 2 30 -11 30 -18 0 -22 35 -6 45 15 9 2 25 -22
25 -12 0 -18 5 -15 13 21 57 21 58 -19 41 -40 -17 -66 -6 -39 16 21 18 19 33
-5 25 -14 -4 -20 -2 -20 9 0 20 -30 48 -45 42 -8 -3 -12 2 -11 12 2 9 -6 23
-17 32 -10 9 -18 24 -16 34 4 19 23 6 181 -122 172 -139 502 -464 667 -657
511 -595 896 -1312 1120 -2086 58 -201 111 -450 153 -714 22 -146 23 -168 23
-795 0 -714 1 -707 -76 -1095 -70 -354 -216 -822 -346 -1105 -33 -71 -35 -74
-50 -55 -8 11 -58 86 -112 168 -155 235 -217 294 -372 350 -78 28 -207 51
-264 46 -48 -5 -49 -17 -12 -101 14 -29 41 -93 61 -143 21 -49 46 -108 56
-130 42 -89 53 -140 54 -235 0 -80 -4 -108 -28 -175 -71 -200 -111 -283 -286
-600 -119 -215 -200 -405 -200 -469 0 -14 -4 -28 -10 -31 -5 -3 -10 -17 -10
-31 0 -13 -4 -33 -10 -44 -5 -11 -14 -29 -20 -40 -5 -11 -10 -29 -10 -39 0
-11 -4 -22 -9 -25 -5 -3 -25 -45 -44 -93 -54 -132 -102 -238 -120 -266 -36
-55 -414 -354 -626 -496 -160 -107 -498 -301 -524 -301 -7 0 51 67 140 160
120 126 182 209 177 238 -3 14 1 29 8 34 10 6 10 10 -1 17 -12 8 -13 15 -4 34
10 21 8 26 -13 37 -13 8 -24 21 -24 31 0 19 -127 129 -295 256 -55 42 -101 80
-103 85 -2 4 -9 8 -16 8 -6 0 -34 19 -61 41 -73 60 -168 127 -196 137 -16 6
-39 5 -69 -4 -25 -8 -66 -14 -92 -14 -25 0 -82 -7 -125 -15 -113 -22 -174 -20
-180 4 -12 46 -99 31 -197 -34 -67 -44 -180 -155 -217 -213 -28 -44 -83 -170
-139 -322 -17 -47 -36 -93 -41 -102 -5 -10 -9 -25 -9 -33 0 -8 -4 -23 -10 -33
-9 -17 -66 -211 -89 -306 -14 -59 -2 -78 21 -33 24 46 58 124 74 169 7 21 36
82 64 135 27 53 50 101 50 106 0 5 15 30 34 56 18 25 40 60 49 76 8 17 25 40
36 52 12 12 21 35 21 53 0 16 3 30 8 30 14 0 130 -118 146 -148 37 -73 47
-123 48 -250 1 -121 -9 -189 -34 -240 -9 -17 -9 -31 -1 -53 10 -25 8 -36 -7
-67 -40 -79 -121 -258 -140 -310 -7 -18 -21 -37 -30 -42 -34 -18 -432 -100
-487 -100 -11 0 -2 37 42 185 14 45 14 51 -1 60 -58 36 -56 28 -39 170 8 72
20 159 25 195 45 295 45 292 43 585 -1 217 -6 339 -22 487 -12 108 -26 268
-32 355 -11 175 -32 359 -50 442 -13 62 -18 58 -50 -39 -33 -98 -38 -103 -138
-133 -49 -15 -141 -51 -203 -80 -62 -30 -151 -71 -198 -92 -170 -76 -448 -214
-556 -277 -61 -36 -117 -67 -125 -71 -8 -3 -66 -39 -129 -81 -224 -147 -310
-187 -675 -316 -280 -99 -402 -153 -578 -259 -100 -59 -113 -65 -185 -71 -87
-8 -172 -42 -269 -108 -70 -47 -202 -184 -258 -268 -61 -90 -58 -88 -107 -63
-70 36 -337 198 -423 257 -464 321 -831 654 -1175 1067 -459 552 -825 1234
-1030 1919 -131 442 -215 934 -226 1326 -2 85 -7 198 -10 250 -7 100 3 118 16
28 7 -52 8 -53 9 -11 0 23 6 45 11 48 6 3 10 28 10 56 0 27 4 49 9 49 5 0 12
8 15 18 2 9 2 -14 -1 -53 -3 -38 -10 -73 -15 -76 -7 -4 -7 -13 0 -25 10 -17
11 -17 17 -3 12 32 38 194 39 249 1 30 5 61 9 68 5 6 5 17 2 22 -4 6 15 10 49
10 l56 0 0 80 c0 79 0 80 25 80 23 0 25 4 25 40 0 22 5 40 11 40 6 0 9 18 8
48 -3 40 -1 47 16 47 10 0 20 6 23 13 2 8 -5 11 -20 10 -30 -4 -32 26 -1 30
17 3 22 11 25 48 l3 44 -39 0 c-22 0 -36 3 -33 7 4 3 20 6 37 5 28 -1 31 3 30
36 -1 4 -9 6 -19 4 -13 -2 -21 6 -26 25 -7 26 -8 26 -16 8 -5 -13 -6 -4 -2 23
6 43 5 43 -21 36 -16 -4 -26 -2 -26 5 0 6 -16 11 -35 11 -23 0 -35 5 -35 14 0
8 -7 16 -15 20 -8 3 -15 16 -16 28 -1 19 -2 18 -9 -7 -4 -16 -13 -63 -20 -103
-8 -40 -18 -76 -23 -79 -5 -3 -7 3 -4 13 3 11 15 73 27 139 22 126 52 263 72
330 14 49 13 42 22 93 4 23 12 40 17 37 5 -4 6 1 3 9 -6 16 36 159 49 164 4 2
5 7 2 12 -9 15 157 466 206 562 13 24 24 49 25 56 4 20 137 291 166 337 14 22
26 42 26 45 6 33 175 299 186 293 5 -3 6 -1 2 5 -6 11 85 159 107 173 5 3 7 8
5 10 -5 7 65 99 75 99 6 0 8 3 4 6 -8 8 133 190 145 186 5 -1 7 2 4 7 -8 12
91 132 106 128 7 -1 12 5 13 13 0 8 14 30 30 49 95 107 118 130 128 124 6 -3
7 -1 3 6 -10 16 301 326 464 461 722 600 1487 980 2377 1180 198 45 520 94
718 110 72 5 148 12 170 13 97 8 533 6 665 -3z m2852 -1017 c8 -10 7 -13 -3
-13 -8 0 -20 9 -27 20 -7 12 -17 18 -21 15 -5 -2 -12 2 -15 11 -5 12 -1 12 25
-3 17 -10 35 -24 41 -30z m106 -75 c16 -16 15 -28 -3 -28 -8 0 -19 9 -25 20
-8 15 -8 20 3 20 7 0 18 -5 25 -12z m-2598 -988 c0 -5 -12 -10 -26 -10 -14 0
-23 4 -19 10 3 6 15 10 26 10 10 0 19 -4 19 -10z m-355 -72 c41 3 77 -6 70
-18 -8 -13 -152 -13 -160 0 -11 18 6 30 33 23 15 -4 41 -6 57 -5z m1525 -248
c0 -5 -4 -10 -10 -10 -5 0 -10 5 -10 10 0 6 5 10 10 10 6 0 10 -4 10 -10z
m-15 -40 c3 -5 -1 -10 -10 -10 -9 0 -13 5 -10 10 3 6 8 10 10 10 2 0 7 -4 10
-10z m827 -564 c36 -27 -20 -36 -67 -12 l-28 15 34 4 c19 2 36 4 39 5 3 1 13
-5 22 -12z m-8161 -1781 c-3 -5 -5 -23 -4 -40 l2 -30 -8 30 c-4 17 -5 34 -2
40 3 5 5 26 4 45 l-1 35 7 -35 c4 -19 5 -39 2 -45z m20 52 c-10 -9 -11 -8 -5
6 3 10 9 15 12 12 3 -3 0 -11 -7 -18z m16 -59 c-3 -8 -6 -5 -6 6 -1 11 2 17 5
13 3 -3 4 -12 1 -19z m-80 -290 c-3 -7 -5 -2 -5 12 0 14 2 19 5 13 2 -7 2 -19
0 -25z m1 -121 c-1 -18 2 -39 7 -46 5 -9 4 -12 -3 -7 -7 4 -12 -11 -15 -46
l-3 -53 -2 61 c-2 59 6 124 15 124 2 0 3 -15 1 -33z m68 -2 c3 -20 4 -39 0
-42 -3 -4 -6 3 -6 15 0 12 -4 22 -8 22 -4 0 -8 9 -8 20 0 33 15 23 22 -15z
m-74 -222 c-3 -16 -7 -22 -10 -15 -4 13 4 42 11 42 2 0 2 -12 -1 -27z m7877
-924 c15 -44 14 -81 -5 -107 -19 -27 -24 -27 -52 -2 -29 27 -30 92 -2 120 28
28 46 25 59 -11z m1001 -246 c0 -20 -3 -33 -7 -29 -8 8 -12 48 -6 59 9 15 13
6 13 -30z m-218 -248 c1 -5 8 -15 17 -22 14 -11 11 -12 -15 -13 -27 0 -31 4
-31 25 0 17 4 25 14 23 8 -2 14 -7 15 -13z m-662 -30 c0 -8 -4 -15 -10 -15 -5
0 -10 7 -10 15 0 8 5 15 10 15 6 0 10 -7 10 -15z m51 -111 c8 -10 13 -42 14
-80 l0 -64 -32 0 c-17 0 -35 4 -38 10 -4 6 -15 4 -30 -6 -13 -9 -32 -14 -41
-12 -16 3 -16 5 -3 18 8 8 18 23 22 33 3 9 16 17 27 17 41 0 58 20 53 62 -6
40 5 49 28 22z m696 -36 c-3 -8 -6 -5 -6 6 -1 11 2 17 5 13 3 -3 4 -12 1 -19z
m-583 -63 c-10 -16 -26 -39 -36 -49 -15 -17 -18 -17 -18 -3 0 8 5 19 10 22 14
9 12 45 -2 46 -10 0 -10 2 0 6 6 2 12 11 12 18 0 8 8 18 18 24 27 15 38 -26
16 -64z m71 35 c3 -5 1 -10 -4 -10 -6 0 -11 5 -11 10 0 6 2 10 4 10 3 0 8 -4
11 -10z m-329 -42 c4 -6 0 -16 -9 -23 -10 -7 -17 -17 -17 -24 0 -6 -7 -11 -15
-11 -18 0 -19 8 -2 43 13 28 31 35 43 15z m94 -173 c0 -8 -4 -15 -10 -15 -5 0
-10 7 -10 15 0 8 5 15 10 15 6 0 10 -7 10 -15z m91 -66 c-21 -8 -31 9 -24 44
l5 27 18 -32 c16 -30 16 -34 1 -39z m-2071 -5 c0 -2 -7 -4 -15 -4 -8 0 -15 4
-15 10 0 5 7 7 15 4 8 -4 15 -8 15 -10z m40 -40 c0 -2 -9 -4 -20 -4 -11 0 -20
4 -20 9 0 5 9 7 20 4 11 -3 20 -7 20 -9z m1930 -97 c0 -16 -31 -47 -47 -47
-18 0 -16 27 5 55 12 17 20 20 30 13 6 -6 12 -15 12 -21z m-1700 -47 c0 -39
-3 -48 -15 -44 -23 9 -30 46 -11 59 9 7 16 17 16 24 0 6 2 11 5 11 3 0 5 -22
5 -50z m1760 -54 c0 -3 -4 -8 -10 -11 -5 -3 -10 -1 -10 4 0 6 5 11 10 11 6 0
10 -2 10 -4z m1197 -102 c-3 -3 -12 -4 -19 -1 -8 3 -5 6 6 6 11 1 17 -2 13 -5z
m-1297 -95 c0 -27 -2 -29 -15 -15 -23 22 -19 35 13 45 1 1 2 -13 2 -30z m1265
-28 c7 -12 -12 -24 -25 -16 -11 7 -4 25 10 25 5 0 11 -4 15 -9z m65 -15 c0 -8
-7 -16 -15 -20 -15 -5 -21 14 -8 27 11 12 23 8 23 -7z m-175 -146 c3 -5 -1
-10 -9 -10 -8 0 -18 5 -21 10 -3 6 1 10 9 10 8 0 18 -4 21 -10z m-305 -154 c0
-2 -7 -6 -15 -10 -8 -3 -15 -1 -15 4 0 6 7 10 15 10 8 0 15 -2 15 -4z m-610
-166 c0 -5 -5 -10 -11 -10 -5 0 -7 5 -4 10 3 6 8 10 11 10 2 0 4 -4 4 -10z
m-616 -1229 c10 -15 -19 -42 -37 -35 -17 6 -23 25 -10 37 9 10 41 9 47 -2z
m-499 -51 c-3 -5 -10 -10 -16 -10 -5 0 -9 5 -9 10 0 6 7 10 16 10 8 0 12 -4 9
-10z m512 -86 c-3 -3 -12 -4 -19 -1 -8 3 -5 6 6 6 11 1 17 -2 13 -5z m394 -48
c9 -20 7 -29 -12 -55 -12 -17 -27 -31 -32 -31 -11 0 -47 39 -47 51 0 18 19 18
25 -1 8 -27 45 -27 45 0 0 13 -9 22 -25 26 -39 10 -30 34 12 34 15 0 27 -9 34
-24z m-486 -16 c-3 -5 -11 -10 -16 -10 -6 0 -7 5 -4 10 3 6 11 10 16 10 6 0 7
-4 4 -10z m265 -20 c0 -5 -5 -10 -11 -10 -5 0 -7 5 -4 10 3 6 8 10 11 10 2 0
4 -4 4 -10z m-14 -37 c8 -11 13 -13 14 -5 0 14 26 16 35 2 3 -5 -7 -23 -23
-41 l-28 -31 -33 28 -33 28 22 18 c27 22 30 22 46 1z m-226 -43 c0 -5 -8 -10
-17 -10 -15 0 -16 2 -3 10 19 12 20 12 20 0z m-220 -31 c0 -4 -7 -6 -15 -3 -8
4 -15 10 -15 15 0 4 7 6 15 3 8 -4 15 -10 15 -15z m194 -48 c11 -12 13 -21 7
-25 -6 -4 -8 -13 -5 -20 3 -8 -8 -23 -26 -36 -28 -20 -35 -21 -56 -10 -51 28
-17 107 47 109 9 1 24 -8 33 -18z m849 -37 c-7 -18 -53 -18 -53 0 0 17 18 25
42 18 9 -2 14 -10 11 -18z m-993 -139 c0 -8 -7 -15 -15 -15 -9 0 -12 6 -9 15
4 8 10 15 15 15 5 0 9 -7 9 -15z m785 -35 c1 -13 -8 -23 -28 -30 -17 -5 -33
-8 -35 -5 -3 3 0 5 6 5 6 0 9 6 6 14 -3 8 5 21 17 30 25 17 32 15 34 -14z
m-865 -36 c0 -8 -4 -14 -9 -14 -11 0 -22 26 -14 34 9 9 23 -3 23 -20z m814
-21 c9 4 16 2 16 -3 0 -6 -5 -10 -11 -10 -5 0 -7 -4 -4 -10 3 -5 -10 -19 -29
-31 -20 -12 -36 -27 -36 -34 0 -7 -9 -15 -20 -18 -28 -7 -25 13 8 48 15 16 25
31 23 33 -2 2 2 13 10 23 9 12 15 15 20 7 4 -6 14 -8 23 -5z m-389 -73 c-3 -5
-13 -10 -21 -10 -8 0 -14 5 -14 10 0 6 9 10 21 10 11 0 17 -4 14 -10z m-504
-31 c11 -5 17 -14 14 -19 -8 -13 -45 0 -45 16 0 17 5 17 31 3z m773 -24 c-4
-8 -10 -15 -15 -15 -4 0 -6 7 -3 15 4 8 10 15 15 15 4 0 6 -7 3 -15z m-715
-41 c18 -4 31 -13 31 -21 0 -9 -6 -13 -15 -9 -8 3 -16 0 -16 -7 -1 -7 -2 -19
-3 -27 -2 -28 -31 -15 -41 18 -11 38 -25 42 -25 7 0 -14 -4 -25 -9 -25 -10 0
-21 57 -13 65 7 7 53 6 91 -1z m183 -38 c6 -27 4 -41 -6 -52 -19 -18 -26 -18
-42 4 -18 24 -17 52 3 74 23 26 36 18 45 -26z m-282 -77 c0 -5 -7 -9 -15 -9
-8 0 -15 7 -15 15 0 9 6 12 15 9 8 -4 15 -10 15 -15z m47 -80 c17 -17 4 -39
-24 -39 -21 0 -23 2 -13 15 6 8 9 19 5 25 -8 14 18 13 32 -1z m602 -20 c-8 -5
-9 -9 -4 -9 11 -1 -35 -29 -47 -30 -20 -1 -5 31 19 44 29 15 56 10 32 -5z
m-659 -9 c0 -5 -4 -10 -10 -10 -5 0 -10 5 -10 10 0 6 5 10 10 10 6 0 10 -4 10
-10z m-11 -60 c16 0 17 -4 7 -41 -9 -35 -12 -38 -16 -19 -5 19 -15 29 -49 47
-10 6 14 23 26 19 8 -3 23 -6 32 -6z m91 -30 c0 -5 -7 -10 -15 -10 -8 0 -15 5
-15 10 0 6 7 10 15 10 8 0 15 -4 15 -10z m-55 -90 c21 -8 26 -16 23 -38 -2
-21 -8 -27 -25 -26 -13 0 -23 -3 -23 -7 0 -7 -54 -29 -71 -29 -5 0 -9 5 -9 11
0 5 6 7 13 4 6 -4 3 0 -7 9 -18 14 -18 17 -2 41 17 26 51 34 59 13 3 -7 6 -3
6 10 1 25 1 25 36 12z"/>
<path d="M605 7371 c-3 -5 -1 -12 5 -16 5 -3 10 1 10 9 0 18 -6 21 -15 7z"/>
<path d="M10422 7227 c-1 -10 -6 -15 -12 -12 -6 4 -10 -6 -10 -24 0 -16 -5
-33 -11 -37 -12 -7 -6 -139 12 -234 19 -99 34 -142 118 -321 l17 -37 13 77 c8
42 22 102 32 134 19 62 17 77 -20 132 -12 17 -21 46 -21 67 0 20 -4 40 -10 43
-5 3 -10 26 -10 50 0 24 -4 47 -10 50 -6 4 -10 -20 -10 -64 l0 -70 -24 24
c-16 15 -26 41 -30 72 -17 131 -23 166 -24 150z"/>
<path d="M10482 7200 c0 -14 2 -19 5 -12 2 6 2 18 0 25 -3 6 -5 1 -5 -13z"/>
<path d="M6560 7151 c0 -5 6 -14 14 -20 16 -13 32 2 21 19 -8 12 -35 13 -35 1z"/>
<path d="M7825 7133 c-11 -3 -28 -12 -37 -21 -10 -8 -18 -12 -18 -8 0 4 -12
-5 -27 -19 -16 -14 -51 -42 -80 -61 -62 -41 -138 -136 -160 -199 -8 -25 -19
-45 -24 -45 -5 0 -9 -21 -9 -47 0 -29 -6 -53 -16 -64 -10 -11 -18 -43 -21 -81
-4 -53 -1 -72 21 -122 24 -52 26 -66 20 -135 -3 -42 -13 -95 -21 -118 -10 -29
-14 -68 -12 -127 4 -76 7 -88 32 -113 22 -24 27 -38 27 -79 0 -38 7 -61 28
-95 51 -79 82 -150 82 -184 0 -42 9 -65 25 -65 7 0 15 -7 19 -15 3 -9 0 -15
-8 -15 -8 0 -16 5 -18 12 -3 9 -6 9 -11 1 -4 -6 0 -18 8 -26 20 -20 19 -35 -5
-75 -11 -18 -20 -36 -20 -41 0 -17 32 -20 54 -5 16 10 34 13 52 8 43 -10 55
-24 53 -58 -3 -41 36 -106 64 -106 11 0 29 -8 39 -17 17 -16 21 -16 45 -1 24
14 27 14 45 -4 19 -19 19 -19 52 1 42 26 62 26 76 1 14 -26 36 -26 50 0 9 16
17 19 54 14 34 -5 44 -3 49 10 4 9 18 16 32 16 22 0 25 4 23 28 -3 25 -1 27
32 25 19 -1 39 -8 46 -17 14 -20 24 -10 24 26 0 15 5 28 10 28 6 0 10 -4 10
-9 0 -13 37 -24 90 -26 26 -1 46 -7 48 -15 5 -14 56 -70 64 -70 3 0 8 10 12
23 3 14 13 23 28 24 30 3 88 -43 100 -79 l11 -30 13 38 c8 22 14 55 14 75 0
53 -48 138 -100 177 -43 33 -44 34 -54 13 -5 -12 -15 -21 -23 -21 -18 0 -17
-19 2 -26 29 -11 4 -23 -25 -12 -42 14 -57 44 -28 54 12 3 30 14 39 23 17 16
17 18 -9 39 -15 12 -52 38 -82 58 -76 52 -125 96 -208 189 -39 44 -95 98 -126
120 -36 26 -61 54 -73 79 -10 22 -35 57 -55 79 -21 21 -38 41 -38 45 0 12 41
44 48 38 3 -3 11 -1 17 4 15 13 11 138 -6 192 -11 33 -10 43 7 74 19 37 63 64
106 64 18 1 14 6 -19 22 -24 11 -43 27 -43 35 0 7 -13 22 -30 31 -16 9 -37 33
-46 52 -9 19 -23 39 -30 43 -16 9 -19 43 -4 52 5 3 7 12 3 20 -3 9 1 15 10 15
8 0 20 6 26 13 8 11 5 19 -14 37 -31 29 -31 38 0 80 39 53 32 58 -51 35 -19
-6 -20 -3 -14 51 7 59 10 63 84 122 47 36 22 37 -63 2 -43 -18 -86 -30 -94
-27 -10 4 -15 18 -14 42 1 32 -15 57 -33 54 -3 -1 -14 -4 -25 -6z m155 -1403
c0 -19 -51 -83 -78 -97 -15 -8 -51 -19 -81 -24 -29 -4 -71 -17 -92 -29 -22
-11 -39 -19 -40 -17 -7 19 -3 47 8 51 7 3 13 14 13 25 0 29 112 81 176 81 27
0 56 5 64 10 19 12 30 13 30 0z m533 -330 c-6 -23 -16 -25 -32 -7 -13 16 -5
27 20 27 12 0 16 -6 12 -20z m117 -70 c0 -5 -4 -10 -9 -10 -6 0 -13 5 -16 10
-3 6 1 10 9 10 9 0 16 -4 16 -10z"/>
<path d="M5602 7110 c0 -14 2 -19 5 -12 2 6 2 18 0 25 -3 6 -5 1 -5 -13z"/>
<path d="M6390 7115 c-7 -9 -11 -18 -8 -20 3 -3 11 1 18 10 7 9 11 18 8 20 -3
3 -11 -1 -18 -10z"/>
<path d="M531 7104 c0 -11 3 -14 6 -6 3 7 2 16 -1 19 -3 4 -6 -2 -5 -13z"/>
<path d="M8487 7114 c-10 -10 17 -44 34 -44 9 0 22 -6 28 -13 9 -11 -6 -16
-77 -27 -48 -8 -96 -15 -107 -16 -37 -3 -140 -37 -156 -51 -8 -7 -21 -13 -28
-13 -7 0 -10 -8 -8 -17 3 -10 8 -40 12 -67 5 -39 15 -56 51 -92 40 -41 47 -44
95 -44 96 0 148 28 217 115 12 16 22 24 22 18 0 -7 -4 -14 -9 -17 -4 -3 -6
-16 -4 -30 6 -29 -46 -87 -91 -102 -35 -12 -45 -31 -19 -36 26 -5 155 11 167
21 6 5 27 11 46 13 33 3 35 1 33 -26 -3 -33 -43 -72 -111 -107 -48 -25 -50
-45 -4 -43 37 2 197 61 234 86 14 10 30 18 35 18 5 0 25 19 44 42 67 84 74
205 14 262 -83 79 -195 136 -312 161 -75 16 -97 18 -106 9z m30 -110 c-3 -3
-12 -4 -19 -1 -8 3 -5 6 6 6 11 1 17 -2 13 -5z m-224 -87 c3 -8 1 -20 -4 -28
-12 -19 -11 -66 1 -74 15 -9 12 -25 -6 -25 -8 0 -28 15 -45 32 -30 34 -38 75
-17 96 16 16 65 15 71 -1z"/>
<path d="M6520 7091 c0 -24 33 -42 64 -35 40 8 46 12 46 30 0 10 -14 14 -55
14 -30 0 -55 -4 -55 -9z"/>
<path d="M5470 7061 c-10 -19 -4 -28 57 -86 89 -85 99 -85 100 5 0 72 -4 81
-41 87 -108 16 -104 16 -116 -6z"/>
<path d="M6436 7071 c5 -4 23 -11 39 -15 l30 -6 -25 15 c-27 16 -60 21 -44 6z"/>
<path d="M550 7061 c0 -5 -3 -16 -6 -25 -3 -9 -2 -16 3 -16 5 0 10 11 11 25 1
14 0 25 -3 25 -3 0 -5 -4 -5 -9z"/>
<path d="M521 7034 c-6 -15 -9 -29 -7 -32 3 -2 10 8 16 23 14 36 7 43 -9 9z"/>
<path d="M526 6984 c-9 -24 -7 -27 9 -10 17 17 19 26 6 26 -5 0 -12 -7 -15
-16z"/>
<path d="M6666 6946 c3 -8 24 -23 47 -32 l42 -18 -31 -4 c-18 -2 -40 -12 -50
-23 -9 -10 -27 -19 -40 -19 -25 0 -139 -28 -163 -40 -9 -4 -36 -14 -61 -21
-25 -7 -57 -21 -72 -31 -14 -10 -30 -18 -35 -18 -18 0 -89 -44 -106 -66 -18
-24 -18 -24 8 -24 15 0 35 -5 46 -11 17 -9 21 -5 34 24 10 25 29 42 74 66 34
18 65 30 70 26 5 -3 15 -29 21 -59 23 -111 145 -168 244 -115 35 19 39 19 56
4 15 -13 23 -14 39 -5 12 6 27 10 34 9 21 -4 69 17 142 60 61 36 62 57 5 112
-22 22 -40 43 -40 48 0 5 14 11 32 15 31 6 31 6 12 27 -46 51 -150 94 -251
103 -52 5 -62 4 -57 -8z m-86 -196 c0 -10 -5 -31 -12 -45 -9 -21 -8 -32 6 -61
l17 -36 -28 7 c-64 15 -103 86 -70 127 25 32 87 38 87 8z m230 -55 c14 -17 7
-31 -18 -37 -15 -4 -19 0 -19 23 0 31 17 38 37 14z m180 6 c0 -15 -16 -22 -34
-15 -25 9 -19 24 9 24 14 0 25 -4 25 -9z"/>
<path d="M502 6905 c0 -16 2 -22 5 -12 2 9 2 23 0 30 -3 6 -5 -1 -5 -18z"/>
<path d="M10215 6896 c-27 -19 -50 -40 -50 -47 0 -15 28 -17 57 -4 13 5 21 0
29 -19 16 -34 75 -55 96 -33 12 12 14 26 9 61 -6 37 -12 48 -38 61 -41 20 -45
19 -103 -19z"/>
<path d="M580 6822 c0 -5 7 -13 16 -16 10 -4 14 -1 12 6 -5 15 -28 23 -28 10z"/>
<path d="M6179 6812 c-38 -45 -59 -76 -59 -85 0 -11 41 32 67 71 19 27 13 38
-8 14z"/>
<path d="M680 6750 c0 -5 5 -10 10 -10 6 0 10 5 10 10 0 6 -4 10 -10 10 -5 0
-10 -4 -10 -10z"/>
<path d="M9931 6621 c-7 -5 -15 -28 -18 -52 -4 -41 -2 -45 25 -61 17 -10 33
-18 36 -18 10 0 7 59 -6 100 -14 43 -16 44 -37 31z"/>
<path d="M10506 6445 c-4 -16 -12 -40 -17 -53 -5 -13 -9 -31 -9 -42 0 -10 -9
-22 -20 -25 -11 -3 -20 -11 -20 -16 0 -27 -96 -116 -146 -135 -51 -19 -66 -46
-78 -132 -9 -72 3 -87 51 -67 19 8 52 29 72 47 35 31 91 110 91 128 0 6 5 10
10 10 6 0 10 10 10 23 0 13 4 27 8 33 5 5 16 38 26 74 10 36 22 81 28 101 5
19 8 46 6 60 -4 23 -5 23 -12 -6z"/>
<path d="M640 6240 c0 -73 -2 -80 -20 -80 -19 0 -20 -7 -20 -160 l0 -160 -40
0 -40 0 0 80 c0 73 -2 80 -20 80 -18 0 -20 -7 -20 -80 0 -44 0 -83 0 -87 -1
-13 143 -24 151 -12 3 6 9 10 13 10 30 -4 31 1 33 244 2 237 1 245 -17 245
-18 0 -20 -7 -20 -80z"/>
<path d="M9100 6067 c0 -30 26 -67 47 -67 19 0 21 3 13 30 -5 16 -11 34 -15
40 -9 15 -45 12 -45 -3z"/>
<path d="M9144 5966 c-3 -9 -1 -23 6 -31 7 -8 9 -15 4 -15 -5 -1 2 -10 15 -21
23 -19 25 -19 43 -2 16 14 17 19 6 28 -7 6 -18 19 -24 30 -14 25 -42 31 -50
11z"/>
<path d="M10286 5885 c-9 -14 -14 -30 -11 -35 9 -15 25 -2 25 21 0 10 5 19 10
19 6 0 10 5 10 10 0 18 -17 10 -34 -15z"/>
<path d="M10246 5811 c-4 -7 -5 -15 -2 -18 9 -9 19 4 14 18 -4 11 -6 11 -12 0z"/>
<path d="M422 5720 c0 -19 2 -27 5 -17 2 9 2 25 0 35 -3 9 -5 1 -5 -18z"/>
<path d="M5749 5730 c-3 -17 -12 -26 -26 -28 -27 -4 -32 -46 -7 -60 9 -5 15
-13 15 -18 -1 -5 10 -10 24 -12 14 -2 25 2 25 8 0 7 -6 10 -14 7 -32 -13 -48
39 -20 67 8 9 14 26 12 38 -4 22 -4 22 -9 -2z"/>
<path d="M382 5700 c0 -14 2 -19 5 -12 2 6 2 18 0 25 -3 6 -5 1 -5 -13z"/>
<path d="M392 5645 c0 -16 2 -22 5 -12 2 9 2 23 0 30 -3 6 -5 -1 -5 -18z"/>
<path d="M6663 5576 c-29 -30 -53 -58 -53 -63 0 -4 -10 -19 -23 -33 -120 -132
-191 -309 -168 -415 13 -58 67 -158 81 -150 6 4 10 52 10 109 0 141 32 230
149 421 74 119 95 161 87 174 -13 20 -31 11 -83 -43z"/>
<path d="M392 5580 c0 -14 2 -19 5 -12 2 6 2 18 0 25 -3 6 -5 1 -5 -13z"/>
<path d="M5730 5543 c0 -11 21 -33 31 -33 4 0 6 8 5 18 -3 17 -36 31 -36 15z"/>
<path d="M5750 5441 c0 -11 4 -21 9 -21 18 0 21 18 6 30 -13 10 -15 9 -15 -9z"/>
<path d="M5761 5348 c1 -7 4 -24 9 -38 l7 -25 8 27 c7 28 1 48 -16 48 -5 0 -9
-6 -8 -12z"/>
<path d="M5775 5200 c-4 -7 -2 -16 6 -21 18 -11 23 -4 11 17 -7 12 -11 13 -17
4z"/>
<path d="M9250 5123 c0 -23 15 -39 23 -26 3 5 -1 17 -9 28 -14 18 -14 18 -14
-2z"/>
<path d="M9230 5042 c0 -5 7 -24 16 -41 15 -29 15 -35 1 -48 -12 -12 -19 -13
-36 -3 -20 10 -21 10 -9 -9 16 -26 58 -28 58 -3 0 24 19 42 36 35 9 -3 14 2
14 16 0 12 -6 21 -13 21 -8 0 -22 9 -32 20 -19 21 -35 26 -35 12z"/>
<path d="M6796 5016 c-22 -7 -41 -17 -44 -24 -4 -12 51 -96 89 -134 75 -77
219 -180 254 -183 11 -1 25 -3 30 -5 20 -8 55 12 55 31 0 22 -3 23 -45 8 -42
-16 -78 8 -104 67 -11 24 -24 44 -30 44 -15 0 -25 60 -12 73 17 17 14 103 -5
121 -19 19 -128 20 -188 2z"/>
<path d="M7818 5023 c-9 -2 -23 -14 -31 -27 -14 -21 -14 -24 2 -38 16 -14 19
-13 29 3 7 10 27 25 46 33 50 21 54 36 9 35 -21 -1 -46 -3 -55 -6z"/>
<path d="M9192 4995 c0 -16 2 -22 5 -12 2 9 2 23 0 30 -3 6 -5 -1 -5 -18z"/>
<path d="M5840 4881 c0 -27 24 -45 38 -28 13 15 4 31 -20 40 -13 5 -18 1 -18
-12z"/>
<path d="M5880 4779 c0 -11 4 -18 9 -15 5 4 12 0 14 -6 3 -8 6 -6 6 5 1 9 2
20 4 24 1 3 -6 7 -15 9 -12 1 -18 -4 -18 -17z"/>
<path d="M5900 4695 c0 -8 5 -15 10 -15 6 0 10 7 10 15 0 8 -4 15 -10 15 -5 0
-10 -7 -10 -15z"/>
<path d="M5920 4616 c0 -28 24 -41 40 -21 16 20 5 45 -20 45 -14 0 -20 -7 -20
-24z"/>
<path d="M5990 4515 c-14 -16 -6 -35 16 -35 8 0 14 10 14 25 0 28 -12 32 -30
10z"/>
<path d="M6240 4330 c0 -5 5 -10 10 -10 6 0 10 5 10 10 0 6 -4 10 -10 10 -5 0
-10 -4 -10 -10z"/>
<path d="M7990 4295 c0 -10 7 -15 18 -13 21 4 19 22 -2 26 -10 2 -16 -3 -16
-13z"/>
<path d="M7885 4230 c-4 -6 -3 -16 3 -22 13 -13 23 4 13 21 -7 10 -10 10 -16
1z"/>
<path d="M7956 4191 c-15 -17 -16 -22 -4 -26 27 -11 63 1 63 21 0 27 -37 29
-59 5z"/>
<path d="M8072 4119 c3 -8 18 -15 34 -17 33 -4 24 11 -15 23 -17 5 -22 4 -19
-6z"/>
<path d="M8190 3882 c0 -11 6 -25 14 -31 11 -9 12 -6 8 14 -5 31 -22 43 -22
17z"/>
<path d="M8190 3830 c0 -5 5 -10 11 -10 5 0 7 5 4 10 -3 6 -8 10 -11 10 -2 0
-4 -4 -4 -10z"/>
<path d="M8100 3503 c0 -10 5 -25 10 -33 7 -11 10 -7 10 18 0 17 -4 32 -10 32
-5 0 -10 -8 -10 -17z"/>
<path d="M7780 960 c0 -11 5 -20 10 -20 6 0 10 9 10 20 0 11 -4 20 -10 20 -5
0 -10 -9 -10 -20z"/>
</g>
</svg>
